<?xml version="1.0" ?>
<!-- Uploaded to: SVG Repo, www.svgrepo.com, Generator: SVG Repo Mixer Tools -->
<svg width="800px" height="800px" viewBox="0 0 72 72" xmlns="http://www.w3.org/2000/svg">
<g fill="none" fill-rule="evenodd">
<path d="M36,72 L36,72 C55.882251,72 72,55.882251 72,36 L72,36 C72,16.117749 55.882251,-3.65231026e-15 36,0 L36,0 C16.117749,3.65231026e-15 -2.4348735e-15,16.117749 0,36 L0,36 C2.4348735e-15,55.882251 16.117749,72 36,72 Z" fill="#ECECEC"/>
<g transform="translate(12 16)">
<path d="M33.1861132,0.487444444 C32.4643019,0.124366667 31.8738113,0.491544444 31.8738113,1.30334444 L31.8738113,33.5972222 L45.0461887,40.2232778 C46.4956981,40.9521667 47.6707925,40.4419444 47.6707925,39.0834778 L47.6707925,7.98543333 C47.6707925,7.8556 47.597434,7.73624444 47.4819623,7.67793333 L33.1861132,0.487444444" fill="#00FC87"/>
<path d="M16.077283,25.6514222 L31.1049057,1.08422222 C31.5278491,0.392688889 32.4643019,0.124366667 33.1861132,0.487444444 L47.4982642,7.68613333 C47.5910943,7.73305556 47.6241509,7.84967778 47.5698113,7.93851111 L31.8738113,33.5972222 L16.077283,25.6514222" fill="#00E468"/>
<path d="M2.4674717,0.927511111 C1.26430189,0.322077778 0.856754717,0.769888889 1.56181132,1.92244444 L16.077283,25.6514222 L31.8738113,33.5972222 L16.1112453,7.82872222 C16.0890566,7.79227778 16.0569057,7.76312222 16.0188679,7.74398889 L2.4674717,0.927511111" fill="#00C860"/>
<path d="M16.077283,39.0834778 C16.077283,40.4364778 15.0928302,41.0482889 13.8901132,40.4433111 L1.59260377,34.2573222 C0.870792453,33.8942444 0.280301887,32.9330222 0.280301887,32.1212222 L0.280301887,1.79534444 C0.280301887,0.712944444 1.06777358,0.223222222 2.03003774,0.707477778 L15.9921509,7.73032222 C16.0442264,7.75674444 16.077283,7.81004444 16.077283,7.86835556 L16.077283,39.0834778" fill="#00AC68"/>
</g>
</g>
</svg>