<?xml version="1.0" encoding="iso-8859-1"?>
<!-- Uploaded to: SVG Repo, www.svgrepo.com, Generator: SVG Repo Mixer Tools -->
<svg height="800px" width="800px" version="1.1" id="Layer_1" xmlns="http://www.w3.org/2000/svg" xmlns:xlink="http://www.w3.org/1999/xlink" 
	 viewBox="0 0 512 512" xml:space="preserve">
<circle style="fill:#0F7986;" cx="256" cy="256" r="256"/>
<path style="fill:#21D0C3;" d="M291.118,143.588l94.009,248.462c2.066,5.46-0.706,11.595-6.16,13.66l-159.816,60.469
	c-5.46,2.066-11.595-0.704-13.66-6.159l-94.007-248.464c-0.854-2.252-0.937-4.432-0.258-6.739l29.708-101.078
	c0.969-3.293,3.209-5.711,6.414-6.925l40.932-15.486c3.208-1.214,6.485-0.886,9.389,0.943l89.18,56.093
	C288.886,139.647,290.267,141.337,291.118,143.588L291.118,143.588z M174.812,107.568c4.753-1.797,10.062,0.594,11.858,5.35
	c1.797,4.748-0.595,10.059-5.347,11.855c-4.749,1.798-10.059-0.597-11.86-5.347C167.667,114.674,170.06,109.364,174.812,107.568
	L174.812,107.568z"/>
<path style="fill:#15BDB2;" d="M385.125,392.052c2.069,5.456-0.704,11.592-6.16,13.66L219.15,466.181
	c-5.458,2.064-11.593-0.705-13.658-6.164L385.125,392.052z"/>
<path style="fill:#FFFFFF;" d="M171.045,97.601c10.249-3.878,21.709,1.291,25.589,11.546c3.878,10.251-1.286,21.711-11.54,25.589
	c-10.253,3.879-21.713-1.288-25.591-11.54C155.62,112.943,160.789,101.483,171.045,97.601z M174.81,107.569
	c4.754-1.798,10.063,0.592,11.863,5.343c1.794,4.754-0.598,10.065-5.351,11.861c-4.749,1.798-10.059-0.597-11.86-5.346
	C167.667,114.671,170.063,109.365,174.81,107.569z"/>
<path style="fill:#ECF0F1;" d="M173.496,104.081c6.669-2.526,14.133,0.84,16.659,7.515c2.525,6.674-0.839,14.134-7.512,16.659
	c-6.68,2.526-14.141-0.838-16.664-7.51C163.455,114.067,166.818,106.61,173.496,104.081L173.496,104.081z M174.81,107.569
	c4.754-1.798,10.063,0.592,11.863,5.343c1.794,4.754-0.598,10.065-5.351,11.861c-4.749,1.798-10.059-0.597-11.86-5.346
	C167.667,114.671,170.063,109.365,174.81,107.569z"/>
<path style="fill:#15BDB2;" d="M244.34,249.858l5.841-7.833l13.734,7.929l-3.867,8.988c2.663,2.201,5.111,4.651,7.312,7.312
	l8.988-3.867l7.93,13.734l-7.834,5.844c1.192,3.199,2.092,6.543,2.67,9.997l9.714,1.142v15.859l-9.714,1.144
	c-0.578,3.452-1.478,6.797-2.67,9.998l7.833,5.841l-7.928,13.734l-8.988-3.867c-2.202,2.663-4.651,5.111-7.312,7.312l3.867,8.988
	l-13.734,7.93l-5.844-7.834c-3.201,1.192-6.544,2.092-9.997,2.67l-1.142,9.714h-15.859l-1.144-9.714
	c-3.452-0.578-6.797-1.478-9.998-2.67l-5.841,7.833l-13.734-7.928l3.867-8.988c-2.663-2.202-5.111-4.651-7.312-7.312l-8.988,3.867
	l-7.93-13.734l7.834-5.844c-1.192-3.201-2.092-6.544-2.67-9.997l-9.714-1.142v-15.859l9.714-1.144
	c0.578-3.452,1.478-6.797,2.67-9.998l-7.833-5.841l7.929-13.734l8.988,3.867c2.202-2.663,4.651-5.111,7.312-7.312l-3.867-8.988
	l13.734-7.93l5.844,7.834c3.201-1.192,6.543-2.092,9.997-2.67l1.142-9.714h15.859l1.142,9.714
	C237.795,247.766,241.139,248.666,244.34,249.858z M225.269,276.035c13.806,0,24.996,11.191,24.996,24.996
	c0,13.806-11.191,24.996-24.996,24.996c-13.806,0-24.996-11.191-24.996-24.996C200.273,287.225,211.464,276.035,225.269,276.035z"/>
<path style="fill:#FAD24D;" d="M268.717,82.258L460.686,265.89c4.217,4.035,4.363,10.766,0.331,14.983L342.902,404.349
	c-4.032,4.217-10.762,4.366-14.98,0.329l-191.968-183.63c-1.737-1.663-2.754-3.594-3.137-5.969L116.03,111.071
	c-0.543-3.385,0.434-6.536,2.806-9.012l30.252-31.623c2.371-2.478,5.47-3.596,8.88-3.201l104.65,12.157
	C265.003,79.668,266.979,80.597,268.717,82.258L268.717,82.258z M148.253,99.918c3.51-3.673,9.329-3.803,13.003-0.29
	c3.671,3.511,3.801,9.335,0.287,13.004c-3.51,3.671-9.334,3.8-13.007,0.287C144.871,109.408,144.737,103.589,148.253,99.918z"/>
<path style="fill:#EDB937;" d="M460.685,265.89c4.217,4.035,4.363,10.766,0.331,14.983L342.902,404.349
	c-4.032,4.217-10.762,4.366-14.98,0.329L460.685,265.89z"/>
<path style="fill:#FFFFFF;" d="M140.552,92.551c7.577-7.921,20.145-8.201,28.067-0.621c7.921,7.576,8.199,20.144,0.623,28.066
	c-7.578,7.922-20.144,8.201-28.066,0.623C133.253,113.041,132.975,100.474,140.552,92.551L140.552,92.551z M148.25,99.916
	c3.513-3.671,9.335-3.8,13.007-0.287c3.671,3.511,3.8,9.334,0.287,13.004c-3.511,3.671-9.334,3.801-13.004,0.288
	C144.868,109.409,144.738,103.587,148.25,99.916z"/>
<path style="fill:#ECF0F1;" d="M145.558,97.341c4.933-5.157,13.116-5.339,18.273-0.404c5.157,4.932,5.339,13.113,0.405,18.27
	c-4.933,5.157-13.116,5.339-18.271,0.405C140.806,110.68,140.626,102.497,145.558,97.341z M148.25,99.916
	c3.513-3.671,9.335-3.8,13.007-0.287c3.671,3.511,3.8,9.334,0.287,13.004c-3.511,3.671-9.334,3.801-13.004,0.288
	C144.868,109.409,144.738,103.587,148.25,99.916z"/>
<path style="fill:#FEFEFE;" d="M248.702,153.328c5.462-5.845,11.05-9.025,16.762-9.551c5.708-0.521,11.347,1.82,16.915,7.03
	c5.567,5.21,8.28,10.679,8.139,16.408c-0.143,5.736-2.945,11.518-8.411,17.365l-2.125,2.266l-10.722-10.028l2.798-2.992
	c2.441-2.611,3.667-4.914,3.665-6.914c0-1.997-0.893-3.835-2.682-5.503c-1.783-1.674-3.674-2.441-5.671-2.309
	c-1.991,0.133-4.211,1.508-6.654,4.116c-2.312,2.476-3.807,5.172-4.474,8.09c-0.67,2.922-0.966,5.994-0.892,9.221
	c0.076,3.229,0.273,6.564,0.586,10.018c0.314,3.451,0.363,6.948,0.149,10.487c-0.214,3.534-0.959,7.088-2.241,10.662
	c-1.277,3.57-3.526,7.075-6.742,10.511c-5.464,5.844-11.088,8.994-16.869,9.454c-5.773,0.461-11.447-1.915-17.015-7.123
	c-5.565-5.211-8.316-10.711-8.243-16.508c0.073-5.795,2.84-11.614,8.309-17.456l4.147-4.437l10.727,10.032l-4.829,5.156
	c-2.44,2.613-3.611,4.93-3.51,6.959s1.043,3.877,2.83,5.548c1.789,1.672,3.696,2.491,5.725,2.455
	c2.032-0.033,4.266-1.354,6.71-3.964c2.317-2.479,3.81-5.175,4.479-8.093c0.667-2.918,0.962-5.997,0.889-9.221
	c-0.073-3.225-0.268-6.566-0.584-10.02c-0.314-3.449-0.367-6.946-0.149-10.481c0.215-3.54,0.961-7.091,2.239-10.662
	C243.238,160.269,245.487,156.763,248.702,153.328L248.702,153.328z M287.797,214.456l15.569,14.562l-9.644,10.312l-15.568-14.564
	L258.378,245.9l19.589,18.326l-9.642,10.308L237.392,245.6l67.517-72.173l30.931,28.937l-9.644,10.312l-19.589-18.327
	L287.797,214.456L287.797,214.456z M301.276,274.239c-2.443,2.611-3.631,4.946-3.559,7.009c0.067,2.061,0.996,3.931,2.783,5.6
	c1.787,1.675,3.711,2.476,5.774,2.406c2.064-0.069,4.312-1.41,6.758-4.021l36.461-38.974c2.441-2.611,3.629-4.947,3.561-7.01
	c-0.069-2.064-0.996-3.932-2.782-5.603c-1.791-1.671-3.717-2.473-5.777-2.403c-2.063,0.068-4.316,1.41-6.757,4.018L301.276,274.239
	L301.276,274.239z M325.72,225.374c5.463-5.842,11.139-8.944,17.02-9.308c5.879-0.359,11.605,2.062,17.172,7.271
	c5.568,5.208,8.368,10.761,8.398,16.653c0.031,5.891-2.685,11.758-8.153,17.6l-35.11,37.528c-5.463,5.847-11.138,8.948-17.018,9.31
	c-5.882,0.362-11.607-2.061-17.174-7.268c-5.567-5.209-8.371-10.761-8.398-16.652c-0.032-5.892,2.69-11.759,8.153-17.603
	L325.72,225.374L325.72,225.374z"/>
<path style="fill:#FF5B62;" d="M160.95,101.762c2.143,2.419,1.916,6.12-0.506,8.263c-2.421,2.141-6.121,1.916-8.264-0.506
	l-50.833-57.525c3.123-2.37,6.301-4.669,9.532-6.897L160.95,101.762L160.95,101.762z"/>
<path style="fill:#ED4C54;" d="M145.421,101.873l-3.267-3.7l12.233-3.84l3.269,3.7L145.421,101.873z M101.349,51.994
	c2.016-1.53,4.047-3.038,6.108-4.509l4.332-1.36l3.27,3.7l-12.234,3.84L101.349,51.994L101.349,51.994z M136.903,92.232
	l-3.269-3.699l12.234-3.84l3.269,3.698L136.903,92.232L136.903,92.232z M128.384,82.589l-3.269-3.698l12.233-3.84l3.269,3.699
	L128.384,82.589z M119.863,72.948l-3.269-3.699l12.234-3.84l3.268,3.7L119.863,72.948L119.863,72.948z M111.345,63.306l-3.27-3.7
	l12.233-3.839l3.27,3.7L111.345,63.306z"/>
<path style="fill:#15BDB2;" d="M257.53,380.036c1.492,1.094,2.847,2.332,4.056,3.693l5.662-1.998l5.892,12.417l-5.26,2.96
	c0.277,1.794,0.369,3.629,0.26,5.476l5.415,2.591l-4.613,12.947l-5.812-1.627c-1.095,1.493-2.334,2.847-3.693,4.056l1.999,5.663
	l-12.418,5.892l-2.96-5.26c-1.795,0.278-3.628,0.369-5.477,0.26l-2.589,5.414l-12.948-4.612l1.627-5.81
	c-1.493-1.094-2.849-2.334-4.055-3.693l-5.664,1.999l-5.893-12.419l5.258-2.96c-0.275-1.794-0.365-3.63-0.258-5.476l-5.414-2.59
	l4.611-12.948l5.813,1.626c1.094-1.491,2.334-2.846,3.692-4.054l-1.998-5.664l12.417-5.892l2.96,5.26
	c1.794-0.278,3.629-0.367,5.477-0.26l2.589-5.414l12.949,4.612L257.53,380.036L257.53,380.036z M242.102,387.4
	c7.549,0,13.667,6.119,13.667,13.667c0,7.547-6.119,13.666-13.667,13.666c-7.547,0-13.666-6.119-13.666-13.666
	C228.435,393.518,234.554,387.4,242.102,387.4z"/>
</svg>