<?xml version="1.0" ?>
<!-- Uploaded to: SVG Repo, www.svgrepo.com, Generator: SVG Repo Mixer Tools -->
<svg width="800px" height="800px" viewBox="0 0 64 64" xmlns="http://www.w3.org/2000/svg">
<defs>
<style>.cls-1{fill:#f2f2fc;}.cls-2{fill:#2c3b73;}.cls-3{fill:#d8d8fc;}.cls-4{fill:#fdbf00;}.cls-5{fill:#61729b;}</style>
</defs>
<title/>
<g id="idea">
<path class="cls-1" d="M5,59H59V13H5ZM45.482,28.607l2.1-.37a1,1,0,0,1,.347,1.97l-2.1.371a1,1,0,1,1-.347-1.97Zm-5.335-7.873L41.519,19.1a1,1,0,1,1,1.532,1.286L41.679,22.02a1,1,0,1,1-1.532-1.286ZM31,16a1,1,0,0,1,2,0v2.133a1,1,0,0,1-2,0Zm1,5.4a10.143,10.143,0,0,1,4.657,19.154V48a1,1,0,0,1-1,1H28.343a1,1,0,0,1-1-1V40.554A10.143,10.143,0,0,1,32,21.4ZM21.073,18.977a1,1,0,0,1,1.409.123l1.371,1.634a1,1,0,1,1-1.532,1.286l-1.371-1.634A1,1,0,0,1,21.073,18.977Zm-4.656,9.26,2.1.37a1,1,0,0,1-.347,1.97l-2.1-.371a1,1,0,0,1,.347-1.97ZM16,51H48a1,1,0,0,1,0,2H16a1,1,0,0,1,0-2Zm0,4H48a1,1,0,0,1,0,2H16a1,1,0,0,1,0-2Z"/>
<path class="cls-2" d="M5,11H59V5H5ZM24,7h4a1,1,0,0,1,0,2H24a1,1,0,0,1,0-2ZM16,7h4a1,1,0,0,1,0,2H16a1,1,0,0,1,0-2ZM8,7h4a1,1,0,0,1,0,2H8A1,1,0,0,1,8,7Z"/>
<path d="M60,3H4A1,1,0,0,0,3,4V60a1,1,0,0,0,1,1H60a1,1,0,0,0,1-1V4A1,1,0,0,0,60,3ZM59,59H5V13H59Zm0-48H5V5H59Z"/>
<path class="cls-3" d="M8,9h4a1,1,0,0,0,0-2H8A1,1,0,0,0,8,9Z"/>
<path class="cls-3" d="M16,9h4a1,1,0,0,0,0-2H16a1,1,0,0,0,0,2Z"/>
<path class="cls-3" d="M24,9h4a1,1,0,0,0,0-2H24a1,1,0,0,0,0,2Z"/>
<path class="cls-4" d="M28.744,39.008a1,1,0,0,1,.6.916v2.5h5.314v-2.5a1,1,0,0,1,.6-.916,8.143,8.143,0,1,0-6.513,0ZM32,33a3.009,3.009,0,0,1-1-5.846v-.56a1,1,0,0,1,2,0v.56a3.011,3.011,0,0,1,2.008,2.838,1,1,0,0,1-2,0A1.008,1.008,0,1,0,32,31a3.009,3.009,0,0,1,1,5.846v.562a1,1,0,0,1-2,0v-.562a3.011,3.011,0,0,1-2.008-2.838,1,1,0,0,1,2,0A1.008,1.008,0,1,0,32,33Z"/>
<rect class="cls-5" height="2.571" width="5.314" x="29.343" y="44.429"/>
<path d="M27.343,40.554V48a1,1,0,0,0,1,1h7.314a1,1,0,0,0,1-1V40.554a10.143,10.143,0,1,0-9.314,0ZM32,23.4a8.144,8.144,0,0,1,3.256,15.608,1,1,0,0,0-.6.916v2.5H29.343v-2.5a1,1,0,0,0-.6-.916A8.144,8.144,0,0,1,32,23.4Zm2.657,21.029V47H29.343V44.429Z"/>
<path d="M32,19.133a1,1,0,0,0,1-1V16a1,1,0,0,0-2,0v2.133A1,1,0,0,0,32,19.133Z"/>
<path d="M22.321,22.02a1,1,0,1,0,1.532-1.286L22.481,19.1a1,1,0,1,0-1.532,1.286Z"/>
<path d="M16.069,30.206l2.1.371a1,1,0,0,0,.347-1.97l-2.1-.37a1,1,0,0,0-.347,1.97Z"/>
<path d="M41.679,22.02l1.371-1.634A1,1,0,1,0,41.519,19.1l-1.371,1.634a1,1,0,1,0,1.532,1.286Z"/>
<path d="M16,53H48a1,1,0,0,0,0-2H16a1,1,0,0,0,0,2Z"/>
<path d="M16,57H48a1,1,0,0,0,0-2H16a1,1,0,0,0,0,2Z"/>
<path d="M32,35.016a1.009,1.009,0,0,1-1.008-1.008,1,1,0,0,0-2,0A3.011,3.011,0,0,0,31,36.845v.562a1,1,0,0,0,2,0v-.562A3.009,3.009,0,0,0,32,31a1.008,1.008,0,1,1,1.008-1.008,1,1,0,0,0,2,0A3.011,3.011,0,0,0,33,27.153v-.56a1,1,0,0,0-2,0v.56A3.009,3.009,0,0,0,32,33a1.008,1.008,0,0,1,0,2.017Z"/>
<path d="M45.83,30.577l2.1-.371a1,1,0,0,0-.347-1.97l-2.1.37a1,1,0,1,0,.347,1.97Z"/>
</g>
</svg>