<?xml version="1.0" encoding="iso-8859-1"?>
<!-- Uploaded to: SVG Repo, www.svgrepo.com, Generator: SVG Repo Mixer Tools -->
<svg height="800px" width="800px" version="1.1" id="Layer_1" xmlns="http://www.w3.org/2000/svg" xmlns:xlink="http://www.w3.org/1999/xlink" 
	 viewBox="0 0 512 512" xml:space="preserve">
<polygon style="fill:#FF675C;" points="8.017,432.137 80.573,432.137 80.573,504.704 195.325,389.953 111.277,328.887 "/>
<polygon style="fill:#DB3D5A;" points="111.277,328.887 89.833,350.329 94.864,353.985 95.549,354.477 116.766,391.225 
	158.271,400.054 173.138,410.855 173.882,411.396 195.325,389.953 "/>
<polygon style="fill:#FF675C;" points="316.676,389.953 431.427,504.704 431.427,432.137 503.983,432.137 400.723,328.887 "/>
<polygon style="fill:#DB3D5A;" points="400.723,328.887 316.676,389.953 336.28,409.558 351.901,398.216 393.406,389.387 
	414.624,352.638 420.329,348.491 "/>
<polygon style="fill:#5CC4E0;" points="195.04,388.955 180.173,378.153 138.668,369.324 117.45,332.575 116.766,332.083 
	110.992,327.889 83.117,307.638 78.681,265.438 57.464,228.689 70.579,188.339 66.143,146.139 94.533,114.606 107.648,74.245 
	146.417,56.982 174.807,25.45 217.242,25.45 256,8.198 294.769,25.45 337.193,25.45 365.594,56.982 404.352,74.245 417.467,114.606 
	445.857,146.139 441.421,188.339 454.536,228.689 433.319,265.438 428.883,307.638 396.763,330.972 373.343,369.324 
	331.838,378.153 312.716,392.038 297.505,403.09 256,394.272 214.495,403.09 200.813,393.149 "/>
<path style="fill:#6EAD32;" d="M408.317,205.756c0.061-84.213-68.217-152.489-152.43-152.43
	c-82.798,0.06-152.145,69.408-152.205,152.205c-0.061,84.213,68.217,152.489,152.43,152.43
	C338.91,357.901,408.258,288.554,408.317,205.756z"/>
<circle style="fill:#9FD25A;" cx="256" cy="205.644" r="132.543"/>
<g>
	<path style="fill:#FFFFFF;" d="M320.422,205.642c13.206-17.547,22.787-34.459,27.746-49.039c7.638-22.456,2.389-34.023-3.36-39.771
		c-17.86-17.861-57.05,0.526-88.809,24.385c-31.759-23.859-70.946-42.247-88.808-24.385c-5.749,5.749-10.999,17.316-3.361,39.771
		c4.96,14.578,14.539,31.491,27.746,49.039c-24.467,32.561-42.293,70.906-24.384,88.814c5.062,5.063,11.763,7.262,19.512,7.262
		c19.647,0,46.005-14.155,69.293-31.658c23.289,17.503,49.646,31.657,69.294,31.657c7.745,0,14.45-2.2,19.51-7.261
		C362.715,276.548,344.889,238.202,320.422,205.642z M333.471,128.168c6.91,6.909-0.15,32.527-23.395,64.5
		c-6.114-7.258-12.71-14.442-19.688-21.42c-6.987-6.987-14.16-13.567-21.42-19.683C300.956,128.307,326.54,121.238,333.471,128.168z
		 M256,249.652c-7.848-6.463-15.59-13.498-23.054-20.961c-7.521-7.521-14.544-15.243-20.966-23.046
		c6.424-7.807,13.463-15.553,20.968-23.059c7.513-7.513,15.24-14.534,23.051-20.961c7.81,6.427,15.537,13.448,23.052,20.961
		c7.506,7.506,14.544,15.252,20.968,23.059c-6.422,7.802-13.446,15.526-20.966,23.046C271.59,236.155,263.847,243.192,256,249.652z
		 M178.529,128.168c1.685-1.685,4.469-2.542,8.181-2.542c11.562,0,32.11,8.334,56.32,25.94c-7.26,6.115-14.432,12.695-21.418,19.683
		c-6.978,6.978-13.574,14.163-19.688,21.421C178.679,160.696,171.621,135.078,178.529,128.168z M178.532,283.119
		c-6.072-6.072-2.148-29.601,23.382-64.522c6.115,7.259,12.698,14.433,19.695,21.43c6.95,6.95,14.137,13.546,21.433,19.693
		c-25.733,18.814-45.283,25.894-56.209,25.893C182.93,285.614,180.124,284.712,178.532,283.119z M333.468,283.119
		c-6.048,6.047-29.584,2.132-64.508-23.399c7.295-6.145,14.482-12.742,21.432-19.692c6.997-6.997,13.58-14.171,19.695-21.43
		C335.617,253.52,339.541,277.047,333.468,283.119z"/>
	<path style="fill:#FFFFFF;" d="M256,180.525c-13.851,0-25.119,11.268-25.119,25.119s11.268,25.119,25.119,25.119
		s25.119-11.268,25.119-25.119S269.851,180.525,256,180.525z M256,214.73c-5.01,0-9.086-4.076-9.086-9.086s4.076-9.086,9.086-9.086
		c5.01,0,9.086,4.076,9.086,9.086S261.01,214.73,256,214.73z"/>
</g>
<path d="M509.652,425.629l-96.594-96.584l20.538-14.921c1.839-1.336,3.023-3.388,3.261-5.648l4.256-40.506l20.367-35.273
	c1.136-1.968,1.384-4.326,0.682-6.486l-12.588-38.729l4.257-40.505c0.237-2.26-0.495-4.514-2.015-6.202l-27.249-30.266
	l-12.589-38.742c-0.701-2.16-2.287-3.921-4.362-4.845l-37.203-16.57L343.15,20.084c-1.521-1.688-3.686-2.651-5.957-2.651h-40.722
	L259.259,0.874c-2.073-0.924-4.444-0.924-6.519,0l-37.201,16.559h-40.732c-2.271,0-4.437,0.964-5.958,2.653L141.6,50.352
	l-37.212,16.569c-2.075,0.925-3.661,2.685-4.363,4.846l-12.588,38.741l-27.25,30.266c-1.52,1.689-2.252,3.942-2.015,6.202
	l4.257,40.505l-12.588,38.729c-0.702,2.161-0.454,4.519,0.682,6.486l20.366,35.273l4.257,40.506c0.237,2.26,1.423,4.312,3.261,5.648
	l20.538,14.921L2.349,425.629c-2.293,2.293-2.979,5.741-1.738,8.737c1.241,2.995,4.163,4.949,7.406,4.949h64.54v64.551
	c0,6.973,8.735,10.621,13.685,5.668l109.882-109.882l13.658,9.924c1.824,1.325,4.174,1.824,6.378,1.356l39.839-8.465l39.839,8.465
	c2.222,0.47,4.541-0.02,6.379-1.356l13.659-9.921l109.88,109.88c4.951,4.949,13.686,1.307,13.686-5.668v-64.55h64.54
	c3.242,0,6.166-1.954,7.406-4.949C512.631,431.37,511.945,427.921,509.652,425.629z M80.573,423.281H27.372l84.443-84.434
	l19.91,34.485c1.136,1.967,3.053,3.361,5.275,3.833l39.839,8.475l6.153,4.47l-94.401,94.4v-53.213
	C88.59,426.871,85.001,423.281,80.573,423.281z M295.68,394.507l-38.013-8.077c-1.098-0.233-2.234-0.233-3.332,0l-38.014,8.077
	l-31.435-22.839c-0.909-0.661-1.945-1.122-3.044-1.356l-38.015-8.086l-19.434-33.658c-0.569-0.984-1.339-1.836-2.263-2.5
	L90.717,303.25l-4.063-38.65c-0.118-1.117-0.468-2.198-1.03-3.17l-19.432-33.657l12.012-36.956c0.347-1.069,0.466-2.199,0.348-3.317
	l-4.063-38.65l26.002-28.88c0.751-0.835,1.319-1.818,1.666-2.886l12.012-36.968l35.509-15.811c1.026-0.457,1.945-1.124,2.697-1.959
	l26.002-28.878h38.866c1.123,0,2.234-0.236,3.26-0.693l35.498-15.801l35.509,15.801c1.025,0.456,2.136,0.693,3.259,0.693h38.856
	l26.013,28.882c0.751,0.834,1.671,1.501,2.695,1.958l35.498,15.811l12.013,36.968c0.347,1.069,0.914,2.051,1.666,2.886l26.002,28.88
	l-4.064,38.65c-0.117,1.118,0.001,2.248,0.348,3.317l12.012,36.956l-19.434,33.657c-0.561,0.973-0.913,2.053-1.03,3.17l-4.062,38.65
	l-31.442,22.844c-0.906,0.66-1.664,1.502-2.224,2.472l-19.434,33.658l-38.014,8.086c-1.097,0.234-2.134,0.695-3.042,1.354
	L295.68,394.507z M431.427,423.281c-4.428,0-8.017,3.589-8.017,8.017v53.214l-94.397-94.398l6.159-4.473l39.84-8.475
	c2.221-0.472,4.139-1.866,5.275-3.833l19.907-34.478l84.435,84.428H431.427z"/>
<path d="M117.578,205.644c0-76.326,62.095-138.422,138.422-138.422c31.957,0,61.973,10.578,86.799,30.59
	c3.448,2.779,8.495,2.236,11.273-1.211c2.779-3.447,2.237-8.493-1.21-11.273C325.55,63.313,291.15,51.189,256,51.189
	c-85.167,0-154.455,69.288-154.455,154.455c0,34.802,11.3,67.66,32.679,95.021c1.581,2.023,3.94,3.082,6.322,3.082
	c1.726,0,3.464-0.556,4.93-1.701c3.489-2.726,4.107-7.763,1.381-11.252C127.703,266.278,117.578,236.834,117.578,205.644z"/>
<path d="M410.455,205.644c0-37.177-13.399-73.101-37.729-101.153c-2.902-3.345-7.964-3.703-11.309-0.804
	c-3.345,2.901-3.705,7.964-0.804,11.309c21.802,25.136,33.808,57.329,33.808,90.648c0,76.326-62.096,138.422-138.422,138.422
	c-33.499,0-65.826-12.122-91.023-34.134c-3.334-2.913-8.398-2.573-11.312,0.763c-2.913,3.334-2.571,8.398,0.763,11.312
	c28.119,24.563,64.19,38.092,101.571,38.092C341.167,360.099,410.455,290.811,410.455,205.644z"/>
</svg>