<?xml version="1.0" encoding="iso-8859-1"?>
<!-- Uploaded to: SVG Repo, www.svgrepo.com, Generator: SVG Repo Mixer Tools -->
<!DOCTYPE svg PUBLIC "-//W3C//DTD SVG 1.1//EN" "http://www.w3.org/Graphics/SVG/1.1/DTD/svg11.dtd">
<svg fill="#ff66cc" version="1.1" id="Capa_1" xmlns="http://www.w3.org/2000/svg" xmlns:xlink="http://www.w3.org/1999/xlink" 
	 width="800px" height="800px" viewBox="0 0 47.168 47.168"
	 xml:space="preserve">
<g>
	<g id="Layer_69_5_">
		<g>
			<path d="M47.168,36.918V6.699H0v30.219h19.252v1.945H9.188v1.605h28.179v-1.605h-9.846v-1.945H47.168z M3.45,32.469V10.149
				h40.267v22.317H3.45V32.469z"/>
			<path d="M20.955,25.379h-9.363l-2.774,0.139v1.91H27.1v-2.049h-5.596H20.955z M23.955,26.637h-5.777v-0.383h5.777V26.637z"/>
			<polygon points="13.036,13.521 29.425,13.521 29.425,13.99 30.87,13.99 30.87,12.076 11.592,12.076 11.592,24.789 27.098,24.789 
				27.098,23.345 13.036,23.345 			"/>
			<path d="M27.907,29.82h10.036V14.764H27.907V29.82z M33.137,29.064c-0.268,0-0.482-0.217-0.482-0.482
				c0-0.268,0.216-0.484,0.482-0.484c0.268,0,0.484,0.217,0.484,0.484C33.621,28.848,33.404,29.064,33.137,29.064z M29.357,16.215
				h7.137l-0.001,11.109h-7.136V16.215z"/>
		</g>
	</g>
</g>
</svg>