<?xml version="1.0" encoding="utf-8"?>
<!-- Uploaded to: SVG Repo, www.svgrepo.com, Generator: SVG Repo Mixer Tools -->
<svg fill="#51d9ee" height="800px" width="800px" version="1.1" id="_x31_" xmlns="http://www.w3.org/2000/svg" xmlns:xlink="http://www.w3.org/1999/xlink" 
	 viewBox="0 0 128 128" xml:space="preserve">
<path id="_x31__1_" d="M97.2,51h-6.4l-6,10.1c0,0-6.1-9.9-6.6-9.9s-6.5,9.9-6.5,9.9L65.6,51h-2.9c-4.8,0-9.7,1.9-13.4,5.6L39.2,66.7
	l-9.4-20.4c-1.5-3.3-4.2-5.7-7.6-6.9s-7-1.1-10.4,0.4c-5.6,2.5-8,9.2-5.3,14.7l15.3,32.6l-1.7,1.7c-2.5,2.7-2.5,6.8,0.1,9.3
	c2,2,4.9,2.4,7.4,1.3l0.8,1.7l0,0c1.6,3.2,4.9,5.2,8.4,5.2c0.4,0,0.8,0,1.2-0.1l2.5,5.6c0.3,0.7,0.9,0.9,1.5,0.9
	c0.3,0,0.5,0,0.7-0.1c8.2-3.8,11.8-13.7,8-21.8l0,0l0,0l-5.3-11.3l8.9-8.9c0.4-0.4,0.8-0.5,1.3-0.5c1.1,0,1.9,0.8,1.9,1.7v51.1h41.5
	V73.7c0-1.1,0.8-1.9,1.9-1.9s1.9,0.8,1.9,1.9v42.6c0,3.7,2.9,6.6,6.6,6.6c3.7,0,6.6-2.9,6.6-6.6V70C116.1,59.5,107.6,51,97.2,51z
	 M24.4,84.6L12.6,59.5c2.1,0.5,4.2,0.4,6.2-0.5c3.8-1.9,5.6-6.4,3.7-10.2c-1.5-3.2-5.4-4.6-8.6-3.2c-0.8,0.4-1.2,1.3-0.8,2.3
	c0.4,0.8,1.3,1.2,2.3,0.8c1.6-0.8,3.5,0,4.2,1.6c1.1,2.1,0.1,4.8-2.1,5.8c-1.5,0.7-3.1,0.8-4.5,0.1c-1.5-0.5-2.7-1.6-3.3-3.1
	c-1.9-3.8-0.1-8.5,3.7-10.4c2.4-1.2,5.2-1.3,7.7-0.4c2.5,0.9,4.5,2.8,5.7,5.3c3.1,6.5,0.3,14.3-6.4,17.4c-0.8,0.4-1.2,1.3-0.8,2.3
	l7.6,15.8C26.1,83.4,25.2,83.9,24.4,84.6z M31.3,99.7L31.3,99.7l-1.1-2.4l2.4-2.4l3.8,8.1C34.3,102.9,32.2,101.7,31.3,99.7z
	 M47.6,92.1L47.6,92.1c2.8,6.1,0.7,13.1-4.9,16.6l-8-17c0.8-2.4,0.3-5-1.6-6.9c-0.7-0.7-1.5-1.2-2.4-1.5l-7.4-16.2
	c4-2.4,6.6-6.4,7.6-10.7L47.6,92.1L47.6,92.1z"/>
<circle cx="79" cy="31.2" r="15.4"/>
</svg>