<?xml version="1.0" encoding="utf-8"?>
<!-- Generator: Adobe Illustrator 24.3.0, SVG Export Plug-In . SVG Version: 6.00 Build 0)  -->
<svg version="1.1" id="Layer_1" xmlns="http://www.w3.org/2000/svg" xmlns:xlink="http://www.w3.org/1999/xlink" x="0px" y="0px"
	 viewBox="0 0 64 64" style="enable-background:new 0 0 64 64;" xml:space="preserve">
<style type="text/css">
	.st0{fill:#1668AC;}
</style>
<g id="surface1">
	<path className="st0" d="M48,18h7c0.6,0,1-0.4,1-1s-0.4-1-1-1h-7c-0.6,0-1,0.4-1,1S47.4,18,48,18z"/>
	<path className="st0" d="M43,22h12c0.6,0,1-0.4,1-1s-0.4-1-1-1H43c-0.6,0-1,0.4-1,1S42.4,22,43,22z"/>
	<path className="st0" d="M43,26h12c0.6,0,1-0.4,1-1s-0.4-1-1-1H43c-0.6,0-1,0.4-1,1S42.4,26,43,26z"/>
	<path className="st0" d="M43,30h12c0.6,0,1-0.4,1-1s-0.4-1-1-1H43c-0.6,0-1,0.4-1,1S42.4,30,43,30z"/>
	<path className="st0" d="M43,34h12c0.6,0,1-0.4,1-1s-0.4-1-1-1H43c-0.6,0-1,0.4-1,1S42.4,34,43,34z"/>
	<path className="st0" d="M43,38h7c0.6,0,1-0.4,1-1s-0.4-1-1-1h-7c-0.6,0-1,0.4-1,1S42.4,38,43,38z"/>
	<path className="st0" d="M59,2H5C3.3,2,2,3.3,2,5v54c0,1.7,1.3,3,3,3h54c1.7,0,3-1.3,3-3V5C62,3.3,60.7,2,59,2z M60,59c0,0.6-0.4,1-1,1
		H5c-0.6,0-1-0.4-1-1V12h56V59z M60,10H4V5c0-0.6,0.4-1,1-1h54c0.6,0,1,0.4,1,1V10z"/>
	<path className="st0" d="M8,6H7C6.4,6,6,6.4,6,7s0.4,1,1,1h1c0.6,0,1-0.4,1-1S8.6,6,8,6z"/>
	<path className="st0" d="M13,6h-1c-0.6,0-1,0.4-1,1s0.4,1,1,1h1c0.6,0,1-0.4,1-1S13.6,6,13,6z"/>
	<path className="st0" d="M18,6h-1c-0.6,0-1,0.4-1,1s0.4,1,1,1h1c0.6,0,1-0.4,1-1S18.6,6,18,6z"/>
	<path className="st0" d="M57,6h-1c-0.6,0-1,0.4-1,1s0.4,1,1,1h1c0.6,0,1-0.4,1-1S57.6,6,57,6z"/>
	<path className="st0" d="M43,18h1c0.6,0,1-0.4,1-1s-0.4-1-1-1h-1c-0.6,0-1,0.4-1,1S42.4,18,43,18z"/>
	<path className="st0" d="M55,36h-1c-0.6,0-1,0.4-1,1s0.4,1,1,1h1c0.6,0,1-0.4,1-1S55.6,36,55,36z"/>
	<path className="st0" d="M52,6H28c-0.6,0-1,0.4-1,1s0.4,1,1,1h24c0.6,0,1-0.4,1-1S52.6,6,52,6z"/>
	<path className="st0" d="M9,38h29c0.6,0,1-0.4,1-1V17c0-0.6-0.4-1-1-1H9c-0.6,0-1,0.4-1,1v20C8,37.6,8.4,38,9,38z M22.2,32.1L22.2,32.1
		l5.8-9.3L36.2,36H19.8L22.2,32.1z M17.4,36h-6.6l6.1-9.2l3.2,4.8L17.4,36z M37,18v15.5l-8.2-13C28.7,20.2,28.3,20,28,20
		c-0.3,0-0.7,0.2-0.8,0.4l-5.8,9.3l-3.5-5.3C17.6,24.2,17.3,24,17,24s-0.6,0.2-0.8,0.4L10,33.7V18H37z"/>
	<path className="st0" d="M38,56H26c-0.6,0-1-0.4-1-1V43c0-0.6,0.4-1,1-1h12c0.6,0,1,0.4,1,1v12C39,55.6,38.6,56,38,56z M27,54h10V44H27
		V54z"/>
	<path className="st0" d="M55,56H43c-0.6,0-1-0.4-1-1V43c0-0.6,0.4-1,1-1h12c0.6,0,1,0.4,1,1v12C56,55.6,55.6,56,55,56z M44,54h10V44H44
		V54z"/>
	<path className="st0" d="M21,56H9c-0.6,0-1-0.4-1-1V43c0-0.6,0.4-1,1-1h12c0.6,0,1,0.4,1,1v12C22,55.6,21.6,56,21,56z M10,54h10V44H10
		V54z"/>
</g>
</svg>
