<?xml version="1.0" encoding="utf-8"?>
<!-- Generator: Adobe Illustrator 24.3.0, SVG Export Plug-In . SVG Version: 6.00 Build 0)  -->
<svg version="1.1" id="Layer_1" xmlns="http://www.w3.org/2000/svg" xmlns:xlink="http://www.w3.org/1999/xlink" x="0px" y="0px"
	 viewBox="0 0 64 64" style="enable-background:new 0 0 64 64;" xml:space="preserve">
<style type="text/css">
	.st0{fill:#1668AC;}
</style>
<g id="surface1">
	<path class="st0" d="M61,9H17c-0.6,0-1,0.4-1,1v29c0,0.6,0.4,1,1,1h27v9h-4v2h16v2H40v2h17c0.6,0,1-0.4,1-1V40h3c0.6,0,1-0.4,1-1
		V10C62,9.4,61.6,9,61,9z M60,11v4H18v-4H60z M46,40h2v2c0,0.6,0.4,1,1,1s1-0.4,1-1v-2h2v9h-6V40z M56,49h-2v-9h2V49z M18,38V17h42
		v21H18z"/>
	<path class="st0" d="M7,55h26c2.8,0,5-2.2,5-5c0-0.6-0.4-1-1-1h-4v-7h-2v7H9V32h5v-2H8c-0.6,0-1,0.4-1,1v18H3c-0.6,0-1,0.4-1,1
		C2,52.8,4.2,55,7,55z M16.6,51l0.7,0.7c0.2,0.2,0.4,0.3,0.7,0.3h4c0.3,0,0.5-0.1,0.7-0.3l0.7-0.7h12.4c-0.4,1.2-1.6,2-2.8,2H7
		c-1.3,0-2.4-0.8-2.8-2H16.6z"/>
	<path class="st0" d="M21,13c0,0.6-0.4,1-1,1s-1-0.4-1-1s0.4-1,1-1S21,12.4,21,13z"/>
	<path class="st0" d="M24,13c0,0.6-0.4,1-1,1s-1-0.4-1-1s0.4-1,1-1S24,12.4,24,13z"/>
	<path class="st0" d="M27,13c0,0.6-0.4,1-1,1s-1-0.4-1-1s0.4-1,1-1S27,12.4,27,13z"/>
	<path class="st0" d="M20,19h3v2h-3V19z"/>
	<path class="st0" d="M26,19h7v2h-7V19z"/>
	<path class="st0" d="M35,19h3v2h-3V19z"/>
	<path class="st0" d="M20,24h3v2h-3V24z"/>
	<path class="st0" d="M26,24h4v2h-4V24z"/>
	<path class="st0" d="M32,24h6v2h-6V24z"/>
	<path class="st0" d="M20,29h3v2h-3V29z"/>
	<path class="st0" d="M26,29h12v2H26V29z"/>
	<path class="st0" d="M20,34h3v2h-3V34z"/>
	<path class="st0" d="M26,34h4v2h-4V34z"/>
	<path class="st0" d="M32,34h6v2h-6V34z"/>
	<path class="st0" d="M44.3,23.3l-3,3c-0.4,0.4-0.4,1,0,1.4l3,3l1.4-1.4L43.4,27l2.3-2.3L44.3,23.3z"/>
	<path class="st0" d="M53.7,23.3l-1.4,1.4l2.3,2.3l-2.3,2.3l1.4,1.4l3-3c0.4-0.4,0.4-1,0-1.4L53.7,23.3z"/>
	<path class="st0" d="M46.1,32.7l4-12l1.9,0.6l-4,12L46.1,32.7z"/>
</g>
</svg>
