<?xml version="1.0" encoding="utf-8"?>
<!-- Generator: Adobe Illustrator 27.5.0, SVG Export Plug-In . SVG Version: 6.00 Build 0)  -->
<svg version="1.1" xmlns="http://www.w3.org/2000/svg" xmlns:xlink="http://www.w3.org/1999/xlink" x="0px" y="0px"
	 viewBox="0 0 750 500" style="enable-background:new 0 0 750 500;" xml:space="preserve">
<g id="BACKGROUND">
	<g>
		
			<radialGradient id="SVGID_1_" cx="377.201" cy="-14.999" r="418.0161" gradientTransform="matrix(6.123234e-17 1 -1.9483 1.193014e-16 347.9778 -392.2)" gradientUnits="userSpaceOnUse">
			<stop  offset="0.0054" style="stop-color:#FFFFFF"/>
			<stop  offset="0.2952" style="stop-color:#F4F5F8"/>
			<stop  offset="0.8065" style="stop-color:#D6DBE4"/>
			<stop  offset="1" style="stop-color:#C9D0DB"/>
		</radialGradient>
		<rect x="0.001" style="fill:url(#SVGID_1_);" width="749.999" height="500"/>
		
			<linearGradient id="SVGID_00000060025758540067034510000002999354300495616386_" gradientUnits="userSpaceOnUse" x1="375.0005" y1="679.7039" x2="375.0005" y2="264.9085">
			<stop  offset="0.0054" style="stop-color:#FFFFFF"/>
			<stop  offset="0.2952" style="stop-color:#F4F5F8"/>
			<stop  offset="0.8065" style="stop-color:#D6DBE4"/>
			<stop  offset="1" style="stop-color:#C9D0DB"/>
		</linearGradient>
		<path style="fill:url(#SVGID_00000060025758540067034510000002999354300495616386_);" d="M750,391.639
			c-103.373-8.635-233.553-13.783-375-13.783s-271.626,5.148-374.999,13.783V500H750V391.639z"/>
	</g>
</g>
<g id="OBJECTS">
	<g>
		
			<radialGradient id="SVGID_00000042729862284367304220000001638998780101803951_" cx="-2032.3999" cy="-1870.0858" r="322.575" gradientTransform="matrix(0.514 3.000000e-04 -1.030650e-05 0.0139 1316.1475 447.4423)" gradientUnits="userSpaceOnUse">
			<stop  offset="0" style="stop-color:#A5A9B3"/>
			<stop  offset="0.0056" style="stop-color:#A6AAB4"/>
			<stop  offset="0.4563" style="stop-color:#D6D8DC"/>
			<stop  offset="0.8003" style="stop-color:#F4F4F6"/>
			<stop  offset="0.9946" style="stop-color:#FFFFFF"/>
		</radialGradient>
		<path style="fill:url(#SVGID_00000042729862284367304220000001638998780101803951_);" d="M440.533,421.032
			c-0.003,3.879-75.678,6.973-169.025,6.912c-93.347-0.061-169.018-3.254-169.015-7.133c0.002-3.879,75.677-6.973,169.023-6.912
			C364.864,413.961,440.535,417.153,440.533,421.032z"/>
		
			<radialGradient id="SVGID_00000099661325484282022060000010150564680746866088_" cx="-1734.9598" cy="-1849.0687" r="322.5748" gradientTransform="matrix(0.514 3.000000e-04 -1.030650e-05 0.0139 1316.1414 455.6273)" gradientUnits="userSpaceOnUse">
			<stop  offset="0" style="stop-color:#A5A9B3"/>
			<stop  offset="0.0056" style="stop-color:#A6AAB4"/>
			<stop  offset="0.4563" style="stop-color:#D6D8DC"/>
			<stop  offset="0.8003" style="stop-color:#F4F4F6"/>
			<stop  offset="0.9946" style="stop-color:#FFFFFF"/>
		</radialGradient>
		<path style="fill:url(#SVGID_00000099661325484282022060000010150564680746866088_);" d="M593.411,429.597
			c-0.003,3.879-75.678,6.974-169.025,6.912c-93.347-0.061-169.017-3.254-169.015-7.133c0.002-3.879,75.678-6.972,169.024-6.91
			C517.742,422.526,593.414,425.718,593.411,429.597z"/>
		
			<radialGradient id="SVGID_00000011725738767868048650000010278018778167922585_" cx="-3140.2683" cy="-1836.412" r="322.5471" gradientTransform="matrix(0.3229 2.000000e-04 -1.030650e-05 0.0139 1619.7247 460.9477)" gradientUnits="userSpaceOnUse">
			<stop  offset="0" style="stop-color:#A5A9B3"/>
			<stop  offset="0.0056" style="stop-color:#A6AAB4"/>
			<stop  offset="0.4563" style="stop-color:#D6D8DC"/>
			<stop  offset="0.8003" style="stop-color:#F4F4F6"/>
			<stop  offset="0.9946" style="stop-color:#FFFFFF"/>
		</radialGradient>
		<path style="fill:url(#SVGID_00000011725738767868048650000010278018778167922585_);" d="M711.922,434.944
			c-0.003,3.879-47.539,6.991-106.176,6.953c-58.637-0.038-106.168-3.213-106.166-7.092c0.003-3.879,47.539-6.99,106.175-6.952
			C664.392,427.892,711.924,431.065,711.922,434.944z"/>
	</g>
	<g>
		<g>
			<g>
				
					<linearGradient id="SVGID_00000041273277568894951600000011337695467881189021_" gradientUnits="userSpaceOnUse" x1="310.3232" y1="346.2246" x2="310.3232" y2="453.8608">
					<stop  offset="0" style="stop-color:#1E2226"/>
					<stop  offset="1" style="stop-color:#373D47"/>
				</linearGradient>
				<path style="fill:url(#SVGID_00000041273277568894951600000011337695467881189021_);" d="M273.76,330.735v87.797h73.127v-87.797
					H273.76z M327.43,370.469c0,8.095-6.563,14.663-14.662,14.663h-4.888c-8.101,0-14.663-6.568-14.663-14.663v-15.885
					c0-8.095,6.563-14.663,14.663-14.663h4.888c8.1,0,14.662,6.568,14.662,14.663V370.469z"/>
				
					<linearGradient id="SVGID_00000111876701797297783370000013058521219473765291_" gradientUnits="userSpaceOnUse" x1="223.6809" y1="418.5327" x2="397.6383" y2="418.5327">
					<stop  offset="0.0054" style="stop-color:#DCE5ED"/>
					<stop  offset="0.1567" style="stop-color:#E1EAF1"/>
					<stop  offset="0.3442" style="stop-color:#F1F8FE"/>
					<stop  offset="0.3583" style="stop-color:#F2F9FF"/>
					<stop  offset="0.7273" style="stop-color:#F2F9FF"/>
					<stop  offset="0.8442" style="stop-color:#EDF4FB"/>
					<stop  offset="0.9891" style="stop-color:#DDE6EE"/>
					<stop  offset="1" style="stop-color:#DCE5ED"/>
				</linearGradient>
				<polygon style="fill:url(#SVGID_00000111876701797297783370000013058521219473765291_);" points="405.717,422.299 
					214.93,422.299 222.765,414.767 397.882,414.767 				"/>
				<g>
					
						<linearGradient id="SVGID_00000148644443259102118840000009900685935812095646_" gradientUnits="userSpaceOnUse" x1="310.3232" y1="366.2324" x2="310.3232" y2="113.7201">
						<stop  offset="0" style="stop-color:#293445"/>
						<stop  offset="1" style="stop-color:#454F61"/>
					</linearGradient>
					<path style="fill:url(#SVGID_00000148644443259102118840000009900685935812095646_);" d="M526.267,105.458
						c0-7.162-5.81-12.97-12.969-12.97H107.347c-7.158,0-12.967,5.808-12.967,12.97v223.288h431.887V105.458z"/>
					
						<linearGradient id="SVGID_00000131348365420004957560000008542204280640140732_" gradientUnits="userSpaceOnUse" x1="310.3232" y1="359.0419" x2="310.3232" y2="200.2415">
						<stop  offset="0" style="stop-color:#293445"/>
						<stop  offset="1" style="stop-color:#454F61"/>
					</linearGradient>
					<path style="fill:url(#SVGID_00000131348365420004957560000008542204280640140732_);" d="M94.38,328.746v20.983
						c0,7.162,5.809,12.969,12.967,12.969h405.951c7.159,0,12.969-5.807,12.969-12.969v-20.983H94.38z"/>
				</g>
				<path style="fill:#FFFFFF;" d="M106.851,328.746V104.87c0-0.275,0.224-0.5,0.496-0.5h405.95c0.276,0,0.499,0.225,0.499,0.5
					v223.876H106.851z"/>
				<path style="fill:#FFCC14;" d="M513.297,104.37H335.065l-63.558,224.376h242.288V104.87
					C513.796,104.595,513.573,104.37,513.297,104.37z"/>
			</g>
			<g>
				<g>
					<g>
						<text transform="matrix(1 0 0 1 213.4766 123.7539)"><tspan x="0" y="0" style="fill:#17253B; font-family:'Bitter-Regular'; font-size:6.3721px;">Home       Features       Portofolio</tspan><tspan x="91.82" y="0" style="fill:#17253B; font-family:'Bitter-Regular'; font-size:8.4961px;">       </tspan><tspan x="103.715" y="0" style="fill:#17253B; font-family:'Bitter-Regular'; font-size:6.3721px;">About Us       Contact Us</tspan></text>
					</g>
					<g>
						<g>
							
								<line style="fill:none;stroke:#17253B;stroke-width:0.7086;stroke-linecap:round;stroke-linejoin:round;stroke-miterlimit:10;" x1="119.085" y1="117.896" x2="131.463" y2="117.896"/>
							
								<line style="fill:none;stroke:#17253B;stroke-width:0.7086;stroke-linecap:round;stroke-linejoin:round;stroke-miterlimit:10;" x1="119.085" y1="121.31" x2="131.463" y2="121.31"/>
							
								<line style="fill:none;stroke:#17253B;stroke-width:0.7086;stroke-linecap:round;stroke-linejoin:round;stroke-miterlimit:10;" x1="119.085" y1="124.724" x2="131.463" y2="124.724"/>
						</g>
					</g>
					<g>
						<g>
							<path style="fill:none;stroke:#FFFFFF;stroke-width:0.7086;stroke-linecap:round;stroke-miterlimit:10;" d="M500.731,121.083
								c0,1.002-0.81,1.813-1.813,1.813c-0.999,0-1.811-0.812-1.811-1.813c0-0.999,0.813-1.813,1.811-1.813
								C499.922,119.271,500.731,120.084,500.731,121.083z"/>
							
								<line style="fill:none;stroke:#FFFFFF;stroke-width:0.7086;stroke-linecap:round;stroke-miterlimit:10;" x1="500.241" y1="122.404" x2="501.561" y2="123.725"/>
						</g>
						
							<line style="fill:none;stroke:#FFFFFF;stroke-width:0.7086;stroke-linecap:round;stroke-miterlimit:10;" x1="497.107" y1="126.771" x2="438.18" y2="126.771"/>
					</g>
				</g>
				<g>
					<path style="fill:#1A273D;" d="M374.422,297.228c3.126,0,5.658-2.532,5.658-5.657c0-3.127-2.532-5.661-5.658-5.661h-41.665
						c-3.125,0-5.661,2.534-5.661,5.661c0,3.125,2.536,5.657,5.661,5.657H374.422z"/>
					<path style="fill:#FFFFFF;" d="M372.055,291.57c0,1.452,1.182,2.633,2.637,2.633c1.454,0,2.634-1.181,2.634-2.633
						c0-1.457-1.18-2.638-2.634-2.638C373.236,288.933,372.055,290.113,372.055,291.57z M375.835,291.57l-1.417,1.413l-0.399-0.398
						l1.015-1.015l-1.015-1.018l0.399-0.399L375.835,291.57z"/>
					<text transform="matrix(1 0 0 1 332.292 292.9043)" style="fill:#FFFFFF; font-family:'Bitter-Regular'; font-size:4.0953px;">browse by category</text>
				</g>
				<g>
					<g>
						<text transform="matrix(1 0 0 1 327.0996 197.7793)"><tspan x="0" y="0" style="fill:#1A273D; font-family:'Bitter-BoldItalic'; font-size:17.3356px;">Responsive</tspan><tspan x="0" y="20.489" style="fill:#1A273D; font-family:'Bitter-BoldItalic'; font-size:17.3356px;">Website Design</tspan></text>
					</g>
					<g>
						<rect x="327.101" y="228.287" style="fill:none;" width="164.32" height="24.4"/>
						<text transform="matrix(1 0 0 1 327.1006 231.4326)"><tspan x="0" y="0" style="fill:#17253B; font-family:'Bitter-Light'; font-size:4.0953px;">Lorem ipsum dolor sit amet, consectetuer adipiscing elit, sed diam nonummy nibh </tspan><tspan x="0" y="6.825" style="fill:#17253B; font-family:'Bitter-Light'; font-size:4.0953px;">euismod tincidunt ut laoreet dolore magna aliquam erat volutpat. Ut wisi enim ad </tspan><tspan x="0" y="13.65" style="fill:#17253B; font-family:'Bitter-Light'; font-size:4.0953px;">minim veniam, quis nostrud exerci tation ullamcorper suscipit lobortis nisl ut </tspan></text>
					</g>
				</g>
				<g>
					
						<rect x="327.096" y="261.538" style="fill:none;stroke:#FFFFFF;stroke-width:0.3543;stroke-linecap:round;stroke-linejoin:round;stroke-miterlimit:10;" width="104.643" height="9.344"/>
					
						<text transform="matrix(1 0 0 1 331.9561 267.6963)" style="fill:#FFFFFF; font-family:'Bitter-Regular'; font-size:4.0953px;">what do you need?</text>
					<path style="fill:#FFFFFF;" d="M423.379,266.212c0,1.538,1.252,2.785,2.787,2.785c1.54,0,2.792-1.247,2.792-2.785
						c0-1.54-1.252-2.787-2.792-2.787C424.631,263.425,423.379,264.672,423.379,266.212z M427.377,266.212l-1.496,1.497
						l-0.426-0.423l1.078-1.074l-1.078-1.076l0.426-0.424L427.377,266.212z"/>
				</g>
				<g>
					<path style="fill:#F0E1BB;" d="M249.534,240.186c-1.341,0-2.619,0.265-3.792,0.736c0.049-0.463,0.075-0.931,0.075-1.405
						c0-7.367-5.972-13.34-13.34-13.34c-7.368,0-13.341,5.973-13.341,13.34c0,0.236,0.023,0.467,0.035,0.7
						c-0.207-0.013-0.412-0.031-0.622-0.031c-5.636,0-10.204,4.567-10.204,10.202c0,5.636,4.568,10.203,10.204,10.203h30.984
						c5.636,0,10.203-4.567,10.203-10.203C259.737,244.753,255.17,240.186,249.534,240.186z"/>
					<g>
						<g>
							<polygon style="fill:#FFCC14;" points="166.227,235.134 145.79,239.25 136.063,273.522 139.554,275.62 155.916,258.323 
															"/>
							<polygon style="fill:#FFA114;" points="155.916,258.323 166.227,235.134 147.936,266.759 							"/>
							<polygon style="fill:#FFCC14;" points="193.972,262.878 189.854,283.315 155.582,293.043 153.486,289.552 170.782,273.19 
															"/>
							<polygon style="fill:#FFA114;" points="170.782,273.19 193.972,262.878 162.346,281.169 							"/>
						</g>
						<g>
							<path style="fill:#FFCC14;" d="M155.897,258.307l7.451,7.45l7.45,7.45c0,0,5.75-1.619,14.923-6.028l-23.795-23.795
								C157.518,252.556,155.897,258.307,155.897,258.307z"/>
							<path style="fill:#F7EEDD;" d="M215.242,180.264c-9.188,5.503-18.982,13.799-29.083,25.898
								c-12.013,14.392-19.638,27.664-24.232,37.222l23.795,23.795c9.557-4.596,22.829-12.22,37.222-24.233
								c12.1-10.101,20.396-19.893,25.899-29.082c-5.977-4.601-11.997-9.867-17.866-15.735
								C225.109,192.259,219.843,186.239,215.242,180.264z"/>
							<path style="fill:#FFCC14;" d="M257.052,172.053c-10.8-2.521-25.327-1.663-41.81,8.211
								c4.601,5.976,9.867,11.995,15.734,17.864c5.869,5.868,11.89,11.135,17.866,15.735
								C258.716,197.382,259.572,182.852,257.052,172.053z"/>
						</g>
						<path style="fill:#1A273D;" d="M226.013,225.905c-6.301,6.303-16.514,6.303-22.814,0c-6.3-6.297-6.3-16.514,0-22.813
							c6.301-6.3,16.514-6.3,22.814,0C232.313,209.392,232.313,219.608,226.013,225.905z"/>
						<path style="fill:#FFCC14;" d="M223.801,223.695c-5.078,5.078-13.313,5.078-18.391,0c-5.08-5.08-5.08-13.313,0-18.39
							c5.078-5.079,13.313-5.079,18.391,0C228.88,210.383,228.88,218.615,223.801,223.695z"/>
					</g>
					<path style="fill:#FFA114;" d="M187.08,194.656c-1.34,0-2.617,0.266-3.791,0.737c0.049-0.464,0.074-0.931,0.074-1.405
						c0-7.368-5.972-13.34-13.34-13.34c-7.367,0-13.341,5.972-13.341,13.34c0,0.235,0.023,0.466,0.036,0.7
						c-0.206-0.014-0.413-0.032-0.623-0.032c-5.635,0-10.202,4.567-10.202,10.203c0,5.636,4.567,10.203,10.202,10.203h30.984
						c5.636,0,10.204-4.567,10.204-10.203C197.284,199.224,192.716,194.656,187.08,194.656z"/>
					<path style="fill:#FFCC14;" d="M195.583,159.45l0.748,1.936l-1.183,1.703c-0.651,0.938-0.252,1.651,0.887,1.59l0,0l2.07-0.113
						l1.254,1.65l0,0c0.689,0.908,1.492,0.751,1.786-0.354l0.53-2.004l1.96-0.684c1.075-0.374,1.173-1.188,0.216-1.805l-1.743-1.126
						l-0.044-2.076c-0.025-1.138-0.765-1.479-1.648-0.763l-1.609,1.313l-1.986-0.601
						C195.729,157.787,195.173,158.388,195.583,159.45z"/>
					<path style="fill:#1A273D;" d="M264.453,216.068l2.536-0.883l0.885-2.537c0.269-0.77,0.709-0.77,0.977,0l0.885,2.537
						l2.536,0.883c0.769,0.27,0.769,0.71,0,0.977l-2.536,0.883l-0.885,2.537c-0.268,0.77-0.708,0.77-0.977,0l-0.885-2.537
						l-2.536-0.883C263.685,216.778,263.685,216.339,264.453,216.068z"/>
					<path style="fill:#1A273D;" d="M127.106,222.356l3.422-1.19l1.193-3.423c0.362-1.039,0.957-1.039,1.317,0l1.193,3.423
						l3.423,1.19c1.038,0.365,1.038,0.959,0,1.319l-3.423,1.192l-1.193,3.424c-0.36,1.037-0.955,1.037-1.317,0l-1.193-3.424
						l-3.422-1.192C126.068,223.315,126.068,222.722,127.106,222.356z"/>
					<g>
						<path style="fill:#FFCC14;" d="M217.479,282.933l1.42-5.997c0.298-1.263-0.483-2.526-1.745-2.825
							c-1.262-0.299-2.525,0.482-2.824,1.744c-0.087,0.364-0.08,0.739,0,1.081l1.418,5.997c0.113,0.479,0.592,0.773,1.07,0.66
							C217.156,283.512,217.404,283.249,217.479,282.933z"/>
						<path style="fill:#FFCC14;" d="M219.471,285.081l5.901-1.771c1.241-0.373,1.945-1.682,1.574-2.924
							c-0.374-1.241-1.684-1.945-2.924-1.573c-0.359,0.107-0.681,0.3-0.936,0.541l-4.483,4.226
							c-0.357,0.337-0.375,0.902-0.037,1.259C218.805,285.091,219.158,285.173,219.471,285.081z"/>
						<path style="fill:#FFCC14;" d="M218.604,287.876l4.484,4.227c0.943,0.889,2.43,0.845,3.318-0.099
							c0.89-0.942,0.845-2.431-0.099-3.317c-0.271-0.258-0.6-0.439-0.935-0.542l-5.903-1.768c-0.47-0.141-0.966,0.126-1.107,0.598
							C218.262,287.308,218.366,287.653,218.604,287.876z"/>
						<path style="fill:#FFCC14;" d="M215.748,288.524l-1.418,5.997c-0.297,1.262,0.483,2.526,1.745,2.824
							c1.261,0.299,2.526-0.481,2.825-1.745c0.086-0.365,0.078-0.739,0-1.08l-1.421-5.996c-0.112-0.479-0.591-0.775-1.071-0.66
							C216.071,287.943,215.823,288.209,215.748,288.524z"/>
						<path style="fill:#FFCC14;" d="M213.757,286.376l-5.899,1.771c-1.241,0.372-1.945,1.68-1.574,2.922
							c0.373,1.241,1.683,1.946,2.924,1.574c0.358-0.109,0.68-0.301,0.936-0.541l4.482-4.227c0.357-0.337,0.375-0.899,0.037-1.259
							C214.422,286.364,214.07,286.282,213.757,286.376z"/>
						<path style="fill:#FFCC14;" d="M214.624,283.577l-4.482-4.224c-0.944-0.89-2.43-0.845-3.318,0.099
							c-0.89,0.943-0.845,2.431,0.099,3.318c0.271,0.258,0.6,0.439,0.936,0.54l5.902,1.771c0.47,0.139,0.966-0.128,1.107-0.6
							C214.966,284.148,214.861,283.802,214.624,283.577z"/>
					</g>
				</g>
			</g>
		</g>
		<g>
			<g>
				
					<linearGradient id="SVGID_00000102538791442989066440000013490905819351454598_" gradientUnits="userSpaceOnUse" x1="468.1051" y1="422.5401" x2="518.4169" y2="224.1279">
					<stop  offset="0" style="stop-color:#293445"/>
					<stop  offset="1" style="stop-color:#454F61"/>
				</linearGradient>
				<path style="fill:url(#SVGID_00000102538791442989066440000013490905819351454598_);" d="M371.508,430.936
					c-7.212,0-13.114-5.901-13.114-13.111V257.509c0-7.211,5.902-13.111,13.114-13.111h236.24c7.211,0,13.111,5.9,13.111,13.111
					v160.316c0,7.21-5.9,13.111-13.111,13.111H371.508z"/>
				<path style="fill:#FFFFFF;" d="M368.32,257.509c0-1.727,1.459-3.185,3.188-3.185h236.24c1.727,0,3.185,1.458,3.185,3.185
					v160.316c0,1.727-1.458,3.186-3.185,3.186h-236.24c-1.728,0-3.188-1.459-3.188-3.186V257.509z"/>
			</g>
			<g>
				<path style="fill:#F0E1BB;" d="M457.626,351.878c-0.802,0-1.567,0.158-2.269,0.44c0.029-0.277,0.046-0.558,0.046-0.841
					c0-4.407-3.573-7.979-7.98-7.979c-4.407,0-7.979,3.571-7.979,7.979c0,0.141,0.013,0.278,0.021,0.42
					c-0.123-0.009-0.247-0.02-0.371-0.02c-3.371,0-6.104,2.732-6.104,6.103c0,3.37,2.733,6.103,6.104,6.103h18.532
					c3.371,0,6.102-2.732,6.102-6.103C463.728,354.609,460.997,351.878,457.626,351.878z"/>
				<g>
					<g>
						<polygon style="fill:#FFCC14;" points="407.796,348.855 395.572,351.317 389.754,371.818 391.842,373.072 401.629,362.727 
													"/>
						<polygon style="fill:#FFA114;" points="401.629,362.727 407.796,348.855 396.856,367.772 						"/>
						<polygon style="fill:#FFCC14;" points="424.392,365.451 421.929,377.675 401.429,383.494 400.175,381.405 410.521,371.618 
													"/>
						<polygon style="fill:#FFA114;" points="410.521,371.618 424.392,365.451 405.475,376.392 						"/>
					</g>
					<g>
						<path style="fill:#FFCC14;" d="M401.618,362.717l4.457,4.456l4.456,4.457c0,0,3.439-0.97,8.926-3.607l-14.232-14.233
							C402.587,359.276,401.618,362.717,401.618,362.717z"/>
						<path style="fill:#F7EEDD;" d="M437.114,316.035c-5.496,3.292-11.354,8.255-17.396,15.491
							c-7.185,8.609-11.746,16.547-14.494,22.264l14.232,14.233c5.716-2.749,13.655-7.31,22.264-14.495
							c7.238-6.041,12.2-11.899,15.491-17.395c-3.575-2.752-7.175-5.901-10.685-9.412
							C443.016,323.212,439.865,319.61,437.114,316.035z"/>
						<path style="fill:#FFCC14;" d="M462.122,311.124c-6.459-1.508-15.148-0.994-25.008,4.911
							c2.751,3.575,5.901,7.177,9.412,10.686c3.511,3.511,7.11,6.66,10.685,9.412C463.117,326.274,463.63,317.584,462.122,311.124z"
							/>
					</g>
					<path style="fill:#1A273D;" d="M443.557,343.335c-3.768,3.771-9.877,3.771-13.646,0c-3.768-3.766-3.768-9.877,0-13.644
						c3.77-3.768,9.878-3.768,13.646,0C447.324,333.458,447.324,339.569,443.557,343.335z"/>
					<path style="fill:#FFCC14;" d="M442.233,342.014c-3.037,3.038-7.962,3.038-10.999,0c-3.04-3.038-3.04-7.962,0-11
						c3.037-3.037,7.962-3.037,10.999,0C445.271,334.052,445.271,338.976,442.233,342.014z"/>
				</g>
				<path style="fill:#FFA114;" d="M420.27,324.645c-0.802,0-1.565,0.158-2.267,0.44c0.029-0.277,0.045-0.556,0.045-0.84
					c0-4.406-3.572-7.979-7.979-7.979c-4.406,0-7.98,3.573-7.98,7.979c0,0.142,0.015,0.278,0.022,0.419
					c-0.123-0.008-0.248-0.02-0.373-0.02c-3.371,0-6.104,2.733-6.104,6.103c0,3.371,2.732,6.103,6.104,6.103h18.533
					c3.371,0,6.103-2.732,6.103-6.103C426.373,327.377,423.641,324.645,420.27,324.645z"/>
				<path style="fill:#FFCC14;" d="M425.355,303.587l0.448,1.157l-0.708,1.019c-0.391,0.561-0.15,0.988,0.53,0.95l0,0l1.238-0.067
					l0.75,0.987l0,0c0.412,0.543,0.892,0.449,1.068-0.211l0.317-1.198l1.172-0.408c0.644-0.225,0.702-0.711,0.129-1.081
					l-1.042-0.673l-0.026-1.242c-0.015-0.68-0.457-0.885-0.985-0.457l-0.964,0.786l-1.188-0.359
					C425.442,302.591,425.109,302.95,425.355,303.587z"/>
				<path style="fill:#1A273D;" d="M466.55,337.452l1.517-0.527l0.529-1.518c0.16-0.461,0.424-0.461,0.584,0l0.529,1.518
					l1.516,0.527c0.462,0.161,0.462,0.424,0,0.584l-1.516,0.529l-0.529,1.518c-0.16,0.459-0.424,0.459-0.584,0l-0.529-1.518
					l-1.517-0.529C466.09,337.876,466.09,337.613,466.55,337.452z"/>
				<path style="fill:#1A273D;" d="M384.396,341.214l2.047-0.713l0.714-2.047c0.217-0.621,0.573-0.621,0.788,0l0.714,2.047
					l2.047,0.713c0.621,0.218,0.621,0.573,0,0.788l-2.047,0.714l-0.714,2.048c-0.215,0.62-0.571,0.62-0.788,0l-0.714-2.048
					l-2.047-0.714C383.775,341.787,383.775,341.432,384.396,341.214z"/>
				<g>
					<path style="fill:#FFCC14;" d="M438.453,377.446l0.849-3.587c0.179-0.756-0.289-1.512-1.044-1.69
						c-0.755-0.18-1.511,0.288-1.689,1.043c-0.052,0.218-0.048,0.441,0,0.647l0.848,3.587c0.068,0.286,0.355,0.463,0.641,0.395
						C438.259,377.792,438.408,377.636,438.453,377.446z"/>
					<path style="fill:#FFCC14;" d="M439.644,378.731l3.529-1.06c0.743-0.224,1.164-1.007,0.942-1.749
						c-0.224-0.743-1.008-1.164-1.749-0.941c-0.214,0.064-0.407,0.18-0.56,0.324l-2.682,2.527c-0.215,0.201-0.225,0.54-0.023,0.753
						C439.245,378.737,439.457,378.786,439.644,378.731z"/>
					<path style="fill:#FFCC14;" d="M439.125,380.403l2.682,2.527c0.565,0.532,1.454,0.506,1.985-0.059
						c0.533-0.564,0.505-1.453-0.059-1.984c-0.162-0.154-0.359-0.262-0.561-0.323l-3.53-1.058c-0.281-0.085-0.578,0.074-0.662,0.357
						C438.92,380.064,438.983,380.271,439.125,380.403z"/>
					<path style="fill:#FFCC14;" d="M437.416,380.791l-0.847,3.587c-0.179,0.755,0.289,1.512,1.043,1.69
						c0.755,0.18,1.512-0.288,1.69-1.044c0.052-0.218,0.047-0.441,0-0.646l-0.85-3.587c-0.068-0.286-0.354-0.464-0.641-0.395
						C437.61,380.444,437.462,380.603,437.416,380.791z"/>
					<path style="fill:#FFCC14;" d="M436.227,379.507l-3.529,1.059c-0.743,0.224-1.164,1.005-0.941,1.747
						c0.223,0.743,1.006,1.165,1.749,0.942c0.214-0.065,0.406-0.18,0.559-0.324l2.682-2.527c0.214-0.201,0.224-0.539,0.022-0.753
						C436.625,379.499,436.413,379.45,436.227,379.507z"/>
					<path style="fill:#FFCC14;" d="M436.745,377.832l-2.682-2.526c-0.565-0.532-1.453-0.506-1.985,0.059
						c-0.532,0.564-0.505,1.454,0.06,1.985c0.162,0.154,0.359,0.263,0.56,0.323l3.53,1.059c0.28,0.082,0.577-0.077,0.662-0.358
						C436.949,378.173,436.887,377.966,436.745,377.832z"/>
				</g>
			</g>
			<path style="fill:#FFCC14;" d="M607.748,254.324h-96.59l-47.216,166.687h143.806c1.727,0,3.185-1.459,3.185-3.186V257.509
				C610.933,255.782,609.475,254.324,607.748,254.324z"/>
			<g>
				<g>
					<g>
						<g>
							<text transform="matrix(1 0 0 1 432.7002 270.9727)"><tspan x="0" y="0" style="fill:#17253B; font-family:'Bitter-Regular'; font-size:3.7455px;">Home       Features       Portofolio</tspan><tspan x="53.972" y="0" style="fill:#17253B; font-family:'Bitter-Regular'; font-size:4.994px;">       </tspan><tspan x="60.964" y="0" style="fill:#17253B; font-family:'Bitter-Regular'; font-size:3.7455px;">About Us       Contact Us</tspan></text>
						</g>
						<g>
							<g>
								
									<line style="fill:none;stroke:#17253B;stroke-width:0.7086;stroke-linecap:round;stroke-linejoin:round;stroke-miterlimit:10;" x1="377.219" y1="267.53" x2="384.492" y2="267.53"/>
								
									<line style="fill:none;stroke:#17253B;stroke-width:0.7086;stroke-linecap:round;stroke-linejoin:round;stroke-miterlimit:10;" x1="377.219" y1="269.536" x2="384.492" y2="269.536"/>
								
									<line style="fill:none;stroke:#17253B;stroke-width:0.7086;stroke-linecap:round;stroke-linejoin:round;stroke-miterlimit:10;" x1="377.219" y1="271.542" x2="384.492" y2="271.542"/>
							</g>
						</g>
						<g>
							<g>
								<path style="fill:none;stroke:#FFFFFF;stroke-width:0.7086;stroke-linecap:round;stroke-miterlimit:10;" d="
									M601.549,269.403c0,0.589-0.477,1.066-1.065,1.066c-0.589,0-1.065-0.477-1.065-1.066c0-0.588,0.476-1.066,1.065-1.066
									C601.072,268.337,601.549,268.815,601.549,269.403z"/>
								
									<line style="fill:none;stroke:#FFFFFF;stroke-width:0.7086;stroke-linecap:round;stroke-miterlimit:10;" x1="601.26" y1="270.18" x2="602.037" y2="270.956"/>
							</g>
							
								<line style="fill:none;stroke:#FFFFFF;stroke-width:0.7086;stroke-linecap:round;stroke-miterlimit:10;" x1="599.419" y1="272.747" x2="564.78" y2="272.747"/>
						</g>
					</g>
					<g>
						<path style="fill:#1A273D;" d="M531.518,386.827c1.838,0,3.326-1.489,3.326-3.327c0-1.837-1.488-3.326-3.326-3.326h-24.491
							c-1.835,0-3.325,1.489-3.325,3.326c0,1.838,1.49,3.327,3.325,3.327H531.518z"/>
						<path style="fill:#FFFFFF;" d="M530.129,383.5c0,0.854,0.691,1.548,1.545,1.548c0.857,0,1.551-0.693,1.551-1.548
							c0-0.855-0.694-1.548-1.551-1.548C530.82,381.952,530.129,382.645,530.129,383.5z M532.349,383.5l-0.835,0.83l-0.233-0.233
							l0.597-0.597l-0.597-0.598l0.233-0.235L532.349,383.5z"/>
						
							<text transform="matrix(1 0 0 1 506.7539 384.2852)" style="fill:#FFFFFF; font-family:'Bitter-Regular'; font-size:2.4072px;">browse by category</text>
					</g>
					<g>
						<g>
							<text transform="matrix(1 0 0 1 503.7012 328.3701)"><tspan x="0" y="0" style="fill:#1A273D; font-family:'Bitter-BoldItalic'; font-size:10.1898px;">Responsive</tspan><tspan x="0" y="12.044" style="fill:#1A273D; font-family:'Bitter-BoldItalic'; font-size:10.1898px;">Website Design</tspan></text>
						</g>
						<g>
							<rect x="503.702" y="346.304" style="fill:none;" width="96.588" height="14.341"/>
							<text transform="matrix(1 0 0 1 503.7031 348.1523)"><tspan x="0" y="0" style="fill:#17253B; font-family:'Bitter-Light'; font-size:2.4072px;">Lorem ipsum dolor sit amet, consectetuer adipiscing elit, sed diam nonummy nibh </tspan><tspan x="0" y="4.012" style="fill:#17253B; font-family:'Bitter-Light'; font-size:2.4072px;">euismod tincidunt ut laoreet dolore magna aliquam erat volutpat. Ut wisi enim ad </tspan><tspan x="0" y="8.023" style="fill:#17253B; font-family:'Bitter-Light'; font-size:2.4072px;">minim veniam, quis nostrud exerci tation ullamcorper suscipit lobortis nisl ut </tspan></text>
						</g>
					</g>
					<g>
						
							<rect x="503.701" y="365.849" style="fill:none;stroke:#FFFFFF;stroke-width:0.3543;stroke-linecap:round;stroke-linejoin:round;stroke-miterlimit:10;" width="61.508" height="5.491"/>
						
							<text transform="matrix(1 0 0 1 506.5566 369.4658)" style="fill:#FFFFFF; font-family:'Bitter-Regular'; font-size:2.4072px;">what do you need?</text>
						<path style="fill:#FFFFFF;" d="M560.296,368.596c0,0.904,0.733,1.638,1.638,1.638s1.641-0.733,1.641-1.638
							c0-0.906-0.736-1.639-1.641-1.639S560.296,367.69,560.296,368.596z M562.644,368.596l-0.88,0.879l-0.249-0.249l0.633-0.63
							l-0.633-0.631l0.249-0.252L562.644,368.596z"/>
					</g>
				</g>
			</g>
			<g>
				<polygon style="opacity:0.3;fill:#FFFFFF;" points="358.394,379.163 410.165,430.936 520.162,430.936 358.394,269.168 				"/>
				<polygon style="opacity:0.3;fill:#FFFFFF;" points="526.267,244.398 620.859,338.991 620.859,260.143 605.115,244.398 				"/>
			</g>
		</g>
		<g>
			<g>
				
					<linearGradient id="SVGID_00000176026087283396500840000006028960459128413066_" gradientUnits="userSpaceOnUse" x1="584.9297" y1="365.8477" x2="655.6201" y2="365.8477">
					<stop  offset="0" style="stop-color:#293445"/>
					<stop  offset="1" style="stop-color:#454F61"/>
				</linearGradient>
				<path style="fill:url(#SVGID_00000176026087283396500840000006028960459128413066_);" d="M655.62,429.491
					c0,4.202-3.438,7.643-7.64,7.643h-55.408c-4.203,0-7.643-3.44-7.643-7.643V302.202c0-4.201,3.439-7.641,7.643-7.641h55.408
					c4.201,0,7.64,3.44,7.64,7.641V429.491z"/>
				<g>
					<path style="fill:#FFFFFF;" d="M653.232,302.202c0-2.896-2.357-5.254-5.252-5.254h-55.408c-2.896,0-5.253,2.357-5.253,5.254
						v67.885l65.913-8.522V302.202z"/>
					<path style="fill:#FFCC14;" d="M587.319,370.087v59.404c0,2.897,2.357,5.254,5.253,5.254h55.408
						c2.895,0,5.252-2.356,5.252-5.254v-67.926L587.319,370.087z"/>
				</g>
			</g>
			<g>
				<path style="fill:#F0E1BB;" d="M636.355,341.103c-0.432,0-0.844,0.084-1.222,0.235c0.017-0.149,0.024-0.299,0.024-0.452
					c0-2.371-1.922-4.294-4.294-4.294c-2.372,0-4.295,1.923-4.295,4.294c0,0.076,0.007,0.151,0.011,0.227
					c-0.066-0.005-0.133-0.01-0.201-0.01c-1.813,0-3.283,1.47-3.283,3.283c0,1.814,1.471,3.285,3.283,3.285h9.977
					c1.814,0,3.283-1.471,3.283-3.285C639.639,342.572,638.17,341.103,636.355,341.103z"/>
				<g>
					<g>
						<polygon style="fill:#FFCC14;" points="609.535,339.476 602.957,340.8 599.825,351.835 600.949,352.509 606.217,346.94 						
							"/>
						<polygon style="fill:#FFA114;" points="606.217,346.94 609.535,339.476 603.647,349.655 						"/>
						<polygon style="fill:#FFCC14;" points="618.467,348.407 617.142,354.986 606.108,358.118 605.434,356.993 611.001,351.726 
													"/>
						<polygon style="fill:#FFA114;" points="611.001,351.726 618.467,348.407 608.286,354.296 						"/>
					</g>
					<g>
						<path style="fill:#FFCC14;" d="M606.209,346.935l2.4,2.398l2.396,2.399c0,0,1.854-0.52,4.806-1.942l-7.659-7.659
							C606.731,345.083,606.209,346.935,606.209,346.935z"/>
						<path style="fill:#F7EEDD;" d="M625.315,321.811c-2.957,1.773-6.111,4.441-9.362,8.337c-3.866,4.634-6.321,8.905-7.8,11.982
							l7.659,7.659c3.075-1.479,7.35-3.934,11.983-7.8c3.895-3.252,6.565-6.405,8.337-9.362c-1.925-1.481-3.862-3.176-5.75-5.066
							C628.492,325.673,626.797,323.734,625.315,321.811z"/>
						<path style="fill:#FFCC14;" d="M638.775,319.168c-3.477-0.812-8.155-0.536-13.461,2.643c1.482,1.923,3.178,3.861,5.067,5.75
							c1.888,1.891,3.825,3.585,5.75,5.066C639.311,327.321,639.586,322.644,638.775,319.168z"/>
					</g>
					<path style="fill:#1A273D;" d="M628.783,336.505c-2.029,2.028-5.317,2.028-7.345,0c-2.028-2.028-2.028-5.316,0-7.344
						c2.027-2.029,5.315-2.029,7.345,0C630.81,331.189,630.81,334.477,628.783,336.505z"/>
					<path style="fill:#FFCC14;" d="M628.07,335.792c-1.635,1.636-4.286,1.636-5.92,0c-1.637-1.635-1.637-4.284,0-5.92
						c1.634-1.635,4.285-1.635,5.92,0C629.704,331.508,629.704,334.157,628.07,335.792z"/>
				</g>
				<path style="fill:#FFA114;" d="M616.249,326.444c-0.432,0-0.844,0.086-1.222,0.237c0.017-0.149,0.025-0.299,0.025-0.452
					c0-2.371-1.922-4.295-4.295-4.295c-2.371,0-4.295,1.924-4.295,4.295c0,0.076,0.008,0.149,0.012,0.225
					c-0.066-0.004-0.134-0.01-0.201-0.01c-1.814,0-3.283,1.471-3.283,3.285c0,1.814,1.469,3.285,3.283,3.285h9.976
					c1.815,0,3.284-1.472,3.284-3.285C619.533,327.915,618.065,326.444,616.249,326.444z"/>
				<path style="fill:#FFCC14;" d="M618.987,315.111l0.239,0.622l-0.38,0.549c-0.21,0.301-0.082,0.531,0.286,0.511l0,0l0.666-0.036
					l0.402,0.532l0,0c0.222,0.292,0.48,0.241,0.575-0.114l0.171-0.645l0.633-0.221c0.346-0.121,0.377-0.381,0.068-0.58l-0.56-0.362
					l-0.015-0.669c-0.008-0.367-0.247-0.477-0.531-0.245l-0.519,0.422l-0.64-0.193C619.033,314.575,618.853,314.769,618.987,315.111
					z"/>
				<path style="fill:#1A273D;" d="M641.157,333.338l0.817-0.285l0.284-0.817c0.087-0.246,0.229-0.246,0.314,0l0.285,0.817
					l0.815,0.285c0.249,0.087,0.249,0.229,0,0.315l-0.815,0.283l-0.285,0.817c-0.086,0.247-0.227,0.247-0.314,0l-0.284-0.817
					l-0.817-0.283C640.91,333.566,640.91,333.425,641.157,333.338z"/>
				<path style="fill:#1A273D;" d="M596.941,335.362l1.102-0.383l0.385-1.103c0.115-0.333,0.307-0.333,0.422,0l0.386,1.103
					l1.101,0.383c0.335,0.117,0.335,0.309,0,0.425l-1.101,0.384l-0.386,1.102c-0.115,0.335-0.307,0.335-0.422,0l-0.385-1.102
					l-1.102-0.384C596.607,335.671,596.607,335.479,596.941,335.362z"/>
				<g>
					<path style="fill:#FFCC14;" d="M626.035,354.862l0.455-1.929c0.099-0.408-0.153-0.814-0.56-0.91
						c-0.407-0.097-0.813,0.155-0.909,0.562c-0.028,0.117-0.026,0.237,0,0.349l0.456,1.929c0.038,0.155,0.192,0.249,0.344,0.213
						C625.931,355.05,626.012,354.965,626.035,354.862z"/>
					<path style="fill:#FFCC14;" d="M626.676,355.555l1.9-0.569c0.398-0.121,0.626-0.543,0.508-0.943
						c-0.121-0.398-0.544-0.625-0.941-0.506c-0.115,0.035-0.221,0.098-0.303,0.175l-1.443,1.36c-0.115,0.107-0.12,0.29-0.012,0.405
						C626.461,355.559,626.576,355.584,626.676,355.555z"/>
					<path style="fill:#FFCC14;" d="M626.396,356.454l1.443,1.361c0.305,0.285,0.783,0.272,1.07-0.032
						c0.285-0.303,0.271-0.782-0.032-1.067c-0.088-0.084-0.194-0.142-0.302-0.175l-1.9-0.569c-0.15-0.045-0.311,0.04-0.357,0.192
						C626.287,356.272,626.321,356.383,626.396,356.454z"/>
					<path style="fill:#FFCC14;" d="M625.477,356.663l-0.456,1.932c-0.096,0.404,0.156,0.813,0.562,0.908
						c0.405,0.097,0.813-0.155,0.909-0.561c0.029-0.117,0.026-0.239,0-0.347l-0.457-1.932c-0.036-0.154-0.19-0.25-0.344-0.213
						C625.583,356.477,625.502,356.563,625.477,356.663z"/>
					<path style="fill:#FFCC14;" d="M624.837,355.972l-1.899,0.57c-0.4,0.12-0.625,0.541-0.506,0.94
						c0.119,0.399,0.541,0.626,0.94,0.507c0.115-0.035,0.218-0.097,0.302-0.174l1.441-1.361c0.115-0.108,0.121-0.29,0.013-0.405
						C625.051,355.969,624.938,355.942,624.837,355.972z"/>
					<path style="fill:#FFCC14;" d="M625.115,355.071l-1.441-1.36c-0.305-0.286-0.782-0.271-1.069,0.031
						c-0.286,0.304-0.271,0.782,0.032,1.069c0.088,0.083,0.193,0.14,0.301,0.174l1.9,0.569c0.151,0.044,0.312-0.042,0.355-0.193
						C625.226,355.255,625.191,355.142,625.115,355.071z"/>
				</g>
			</g>
			<g>
				<g>
					<g>
						<g>
							
								<line style="fill:none;stroke:#17253B;stroke-width:0.3083;stroke-linecap:round;stroke-linejoin:round;stroke-miterlimit:10;" x1="590.621" y1="304.011" x2="595.459" y2="304.011"/>
							
								<line style="fill:none;stroke:#17253B;stroke-width:0.3083;stroke-linecap:round;stroke-linejoin:round;stroke-miterlimit:10;" x1="590.621" y1="305.344" x2="595.459" y2="305.344"/>
							
								<line style="fill:none;stroke:#17253B;stroke-width:0.3083;stroke-linecap:round;stroke-linejoin:round;stroke-miterlimit:10;" x1="590.621" y1="306.679" x2="595.459" y2="306.679"/>
						</g>
					</g>
					<g>
						<g>
							<path style="fill:none;stroke:#17253B;stroke-width:0.3083;stroke-linecap:round;stroke-miterlimit:10;" d="M649.607,305.254
								c0,0.394-0.318,0.711-0.711,0.711c-0.391,0-0.706-0.317-0.706-0.711c0-0.39,0.315-0.707,0.706-0.707
								C649.289,304.547,649.607,304.864,649.607,305.254z"/>
							
								<line style="fill:none;stroke:#17253B;stroke-width:0.3083;stroke-linecap:round;stroke-miterlimit:10;" x1="649.414" y1="305.773" x2="649.931" y2="306.288"/>
						</g>
						
							<line style="fill:none;stroke:#17253B;stroke-width:0.3083;stroke-linecap:round;stroke-miterlimit:10;" x1="648.19" y1="307.481" x2="625.148" y2="307.481"/>
					</g>
				</g>
				<g>
					<path style="fill:#1A273D;" d="M635.091,418.798c2.226,0,4.023-1.8,4.023-4.025c0-2.22-1.798-4.024-4.023-4.024h-29.628
						c-2.227,0-4.028,1.805-4.028,4.024c0,2.225,1.802,4.025,4.028,4.025H635.091z"/>
					<path style="fill:#FFFFFF;" d="M633.41,414.773c0,1.035,0.838,1.874,1.871,1.874c1.036,0,1.877-0.839,1.877-1.874
						c0-1.036-0.841-1.873-1.877-1.873C634.248,412.9,633.41,413.737,633.41,414.773z M636.098,414.773l-1.012,1.007l-0.281-0.286
						l0.724-0.721l-0.724-0.723l0.281-0.283L636.098,414.773z"/>
					
						<text transform="matrix(1 0 0 1 605.1309 415.7236)" style="fill:#FFFFFF; font-family:'Bitter-Regular'; font-size:2.9125px;">browse by category</text>
				</g>
				<g>
					<g>
						<text transform="matrix(1 0 0 1 590.6172 379.6689)"><tspan x="0" y="0" style="fill:#1A273D; font-family:'Bitter-BoldItalic'; font-size:6.2614px;">Responsive</tspan><tspan x="0" y="7.4" style="fill:#1A273D; font-family:'Bitter-BoldItalic'; font-size:6.2614px;">Website Design</tspan></text>
					</g>
					<g>
						<rect x="590.618" y="390.69" style="fill:none;" width="59.351" height="8.813"/>
						<text transform="matrix(1 0 0 1 590.6182 391.8262)"><tspan x="0" y="0" style="fill:#17253B; font-family:'Bitter-Light'; font-size:1.4792px;">Lorem ipsum dolor sit amet, consectetuer adipiscing elit, sed diam nonummy nibh </tspan><tspan x="0" y="2.466" style="fill:#17253B; font-family:'Bitter-Light'; font-size:1.4792px;">euismod tincidunt ut laoreet dolore magna aliquam erat volutpat. Ut wisi enim ad </tspan><tspan x="0" y="4.931" style="fill:#17253B; font-family:'Bitter-Light'; font-size:1.4792px;">minim veniam, quis nostrud exerci tation ullamcorper suscipit lobortis nisl ut </tspan></text>
					</g>
				</g>
				<g>
					
						<rect x="590.601" y="402.699" style="fill:none;stroke:#FFFFFF;stroke-width:0.2177;stroke-linecap:round;stroke-linejoin:round;stroke-miterlimit:10;" width="59.351" height="3.375"/>
					
						<text transform="matrix(1 0 0 1 592.3564 404.9229)" style="fill:#FFFFFF; font-family:'Bitter-Regular'; font-size:1.4792px;">what do you need?</text>
					<path style="fill:#FFFFFF;" d="M646.932,404.388c0,0.555,0.453,1.007,1.008,1.007c0.555,0,1.008-0.452,1.008-1.007
						c0-0.556-0.453-1.008-1.008-1.008C647.385,403.38,646.932,403.832,646.932,404.388z M648.376,404.388l-0.541,0.542
						l-0.151-0.154l0.389-0.388L647.684,404l0.151-0.154L648.376,404.388z"/>
				</g>
				<polygon style="fill:#1A273D;" points="622.6,426.298 620.274,428.622 617.951,426.298 617.098,426.298 620.274,429.476 
					623.453,426.298 				"/>
			</g>
			<g>
				<path style="opacity:0.3;fill:#FFFFFF;" d="M599.831,437.134h48.149c3.372,0,6.249-2.219,7.255-5.266l-70.306-70.303v60.668
					L599.831,437.134z"/>
				<polygon style="opacity:0.3;fill:#FFFFFF;" points="598.201,294.561 655.62,351.981 655.62,308.492 641.691,294.561 				"/>
			</g>
		</g>
	</g>
</g>
</svg>
